<?xml version="1.0" standalone="no"?>
<!DOCTYPE svg PUBLIC "-//W3C//DTD SVG 20010904//EN"
 "http://www.w3.org/TR/2001/REC-SVG-20010904/DTD/svg10.dtd">
<svg version="1.0" xmlns="http://www.w3.org/2000/svg"
 width="600.000000pt" height="244.000000pt" viewBox="0 0 600.000000 244.000000"
 preserveAspectRatio="xMidYMid meet">
<metadata>
Created by potrace 1.15, written by Peter Selinger 2001-2017
</metadata>
<g transform="translate(0.000000,244.000000) scale(0.100000,-0.100000)"
fill="#000000" stroke="none">
<path d="M0 1351 c0 -862 3 -1090 13 -1094 10 -4 10 -6 0 -6 -10 -1 -13 -33
-13 -126 l0 -125 1740 0 c1713 0 1740 1 1740 20 0 27 19 35 35 14 13 -18 14
-17 8 4 -4 17 -11 22 -24 19 -23 -6 -51 43 -38 64 5 8 9 21 9 29 0 13 -1 13
-10 0 -7 -11 -10 -6 -10 21 0 42 8 53 27 38 7 -6 13 -8 13 -3 0 5 5 16 10 24
8 13 11 12 22 -3 13 -17 14 -17 15 4 2 25 33 54 73 70 41 15 52 42 34 79 -9
17 -22 29 -29 27 -8 -4 -10 3 -7 19 2 14 0 24 -7 24 -6 0 -11 9 -11 21 0 11
-12 41 -27 66 -37 64 -38 88 -2 113 27 20 34 19 30 -3 -1 -5 3 -6 9 -2 5 3 10
15 10 27 0 11 8 22 20 25 23 6 27 48 8 99 -10 28 -9 36 4 51 19 23 30 53 18
53 -4 0 -13 15 -20 34 -8 26 -16 33 -36 33 -37 1 -40 10 -10 38 23 22 27 22
21 6 -3 -11 -1 -22 4 -25 5 -4 12 3 16 14 4 11 21 23 42 29 19 6 43 17 53 26
17 16 19 15 29 -3 9 -17 8 -22 -9 -27 -19 -6 -29 -34 -12 -36 4 0 16 -2 27 -4
20 -4 20 -4 0 11 -19 14 -19 15 3 20 12 4 22 11 22 16 0 5 5 6 11 3 6 -4 10
-1 8 6 -3 29 1 49 12 49 6 0 8 -8 5 -18 -5 -14 -1 -17 21 -16 15 0 29 6 31 13
3 9 -2 11 -16 7 -31 -10 -38 22 -7 34 14 6 37 15 51 20 22 9 25 8 22 -7 -2
-10 -10 -17 -18 -15 -11 3 -11 0 0 -12 18 -23 30 -20 30 9 0 16 6 25 16 25 9
0 12 -5 8 -12 -5 -7 -3 -8 5 -3 8 4 10 17 7 31 -4 13 -2 24 3 24 5 0 11 -11
13 -25 l3 -24 25 19 c25 19 25 19 5 35 -11 9 -14 14 -7 10 6 -3 12 -1 12 5 0
23 18 -1 24 -32 5 -26 9 -30 16 -18 11 17 11 17 15 -28 3 -34 -25 -65 -50 -56
-7 3 -15 -2 -18 -10 -8 -19 -8 -19 33 -5 26 9 34 9 41 -2 14 -22 11 -29 -18
-40 -20 -7 -24 -12 -14 -18 8 -5 10 -15 7 -22 -4 -8 -1 -6 8 5 14 17 16 17 31
2 9 -9 13 -20 10 -26 -3 -5 -3 -15 1 -21 4 -8 9 -7 15 2 8 14 1 67 -11 84 -4
6 -7 33 -8 62 0 41 -6 60 -27 88 -15 19 -23 35 -17 35 5 0 13 7 16 16 4 10 2
13 -6 8 -8 -5 -9 -2 -5 9 3 9 2 19 -3 22 -6 4 -10 2 -10 -4 0 -6 -10 -16 -22
-22 l-23 -11 22 21 c13 12 23 27 23 33 0 6 9 -1 21 -16 28 -36 38 -26 33 36
-3 49 -18 73 -37 61 -5 -3 -6 4 -3 15 4 11 4 32 0 46 -5 21 -9 24 -24 16 -10
-6 -21 -10 -24 -10 -11 0 -6 29 8 43 14 14 19 35 17 71 -1 15 -4 16 -15 6 -8
-6 -12 -18 -9 -25 6 -17 -24 -51 -35 -40 -4 4 -1 10 6 12 10 4 10 9 -3 23 -16
18 -15 20 15 35 18 9 29 19 26 22 -3 4 -1 12 5 20 9 9 8 17 0 27 -6 8 -11 31
-10 52 2 51 -12 143 -22 150 -5 3 -19 -2 -33 -11 -23 -15 -25 -15 -35 4 -6 11
-11 27 -11 35 0 9 -5 16 -12 16 -9 0 -9 3 -1 11 13 13 36 3 28 -12 -4 -5 1 -9
10 -9 9 0 13 -5 10 -10 -4 -6 -12 -8 -18 -4 -7 3 -4 -1 7 -10 29 -23 49 2 41
51 -10 56 -47 173 -55 173 -4 0 -8 12 -8 28 -2 67 -14 130 -32 168 -12 23 -18
54 -16 73 3 24 0 31 -10 27 -47 -19 -47 -19 -39 -6 5 8 10 35 11 62 l2 48 -33
0 c-33 0 -33 0 -24 -32 5 -18 9 -34 9 -35 0 -1 7 0 15 3 20 8 19 -10 0 -26
-14 -12 -13 -15 9 -30 24 -15 25 -18 10 -38 -8 -12 -13 -31 -9 -42 5 -16 1
-19 -22 -17 -22 2 -27 -2 -25 -15 2 -10 -2 -18 -8 -18 -5 0 -10 5 -10 11 0 8
-5 7 -15 -1 -13 -11 -14 -10 -10 3 10 23 -14 31 -36 11 -10 -9 -19 -14 -19 -9
0 4 -7 2 -16 -6 -13 -10 -17 -10 -25 2 -7 11 -9 11 -9 -3 0 -26 -20 -22 -21 5
-1 20 -2 19 -14 -8 l-14 -30 -1 30 c0 25 6 33 30 42 27 10 29 13 20 44 -12 41
-12 74 -1 45 6 -15 10 -16 15 -7 5 8 0 20 -13 32 -24 22 -29 38 -6 19 12 -10
15 -9 15 8 0 16 -5 19 -22 15 -22 -4 -22 -3 2 11 14 8 33 15 43 16 9 0 17 4
17 9 0 4 -24 8 -54 9 -46 0 -54 -3 -50 -17 5 -13 4 -13 -6 2 -9 14 -26 17
-106 17 -73 0 -94 -3 -88 -12 6 -10 4 -10 -7 0 -7 6 -27 12 -44 12 -23 0 -26
-3 -15 -10 10 -6 11 -10 3 -10 -7 0 -13 -4 -13 -9 0 -5 8 -7 18 -4 10 2 27 -6
41 -21 14 -14 20 -26 14 -26 -6 0 -13 5 -15 12 -5 13 -48 19 -48 6 0 -5 -4 -6
-10 -3 -6 3 -10 20 -10 36 l0 30 -214 -3 c-118 -1 -212 -6 -210 -10 3 -5 -6
-8 -20 -8 -14 0 -26 5 -26 12 0 6 -7 3 -16 -8 -8 -10 -13 -14 -10 -8 9 19 -19
24 -130 24 -68 0 -103 -4 -99 -10 3 -5 1 -10 -6 -10 -7 0 -9 -3 -6 -7 4 -3 3
-11 -3 -17 -5 -7 -5 -18 -1 -25 6 -9 11 -10 15 -2 4 6 2 11 -4 11 -7 0 -5 7 5
16 13 13 18 14 31 3 11 -9 18 -9 22 -2 4 6 31 14 60 18 44 6 52 4 52 -9 0 -9
-8 -16 -17 -17 -10 0 -39 -2 -64 -3 -52 -2 -94 -31 -69 -46 18 -11 31 -3 23
15 -3 8 -1 15 3 16 5 0 17 2 27 4 9 2 17 -1 17 -6 0 -5 -4 -9 -10 -9 -5 0 -10
-4 -10 -8 0 -4 8 -8 19 -8 10 0 17 6 14 12 -2 7 0 15 6 19 7 3 8 0 5 -9 -6
-15 11 -17 34 -2 24 14 72 25 72 15 0 -5 10 -9 23 -9 18 0 19 2 7 11 -12 9
-12 10 -1 7 8 -3 17 -10 19 -18 4 -10 -6 -12 -43 -7 -38 6 -52 3 -68 -10 -10
-10 -31 -19 -46 -19 -56 -3 -54 -3 -41 -19 10 -12 10 -15 -4 -15 -9 0 -16 5
-16 10 0 6 -4 10 -10 10 -5 0 -10 -7 -10 -15 0 -11 12 -15 45 -15 25 0 45 3
45 8 0 8 28 11 139 15 65 2 77 5 73 17 -4 11 -2 11 12 -2 9 -10 15 -22 12 -27
-4 -5 0 -12 6 -14 10 -4 10 -6 0 -6 -7 -1 -23 4 -34 10 -16 9 -19 8 -13 -2 6
-9 2 -11 -13 -7 -24 7 -36 -14 -19 -31 6 -6 8 -11 4 -11 -3 0 -17 11 -31 25
-26 26 -46 32 -46 14 0 -5 4 -8 9 -4 5 3 12 1 16 -4 6 -11 -27 -7 -46 5 -6 3
-16 0 -21 -7 -8 -11 -8 -10 -4 4 5 15 1 18 -17 15 -14 -2 -21 -9 -21 -21 2
-22 -5 -22 -23 1 -8 9 -12 12 -9 6 4 -8 -10 -14 -39 -18 -24 -4 -47 -11 -50
-17 -8 -12 25 -25 34 -12 3 5 15 13 25 17 19 7 19 6 2 -13 -11 -12 -14 -21 -7
-26 6 -3 11 -1 11 5 0 6 5 8 10 5 6 -3 10 -1 10 5 0 6 4 9 8 6 5 -3 21 2 37
10 21 11 30 12 36 3 4 -7 14 -9 25 -4 30 12 64 14 64 4 0 -5 -7 -9 -17 -9 -26
0 -11 -8 27 -14 19 -3 36 -10 38 -15 2 -6 16 -11 30 -12 15 0 36 -4 47 -8 17
-7 17 -8 -7 -13 -15 -3 -25 -2 -23 3 6 9 -112 23 -146 16 -13 -2 0 -5 29 -6
29 0 63 -6 75 -13 12 -6 36 -15 52 -19 17 -4 -6 -4 -49 -1 -73 5 -79 4 -73
-13 6 -14 3 -16 -18 -11 -14 4 -34 2 -45 -4 -12 -7 -21 -7 -25 0 -3 5 -1 10 6
10 9 0 10 3 2 11 -14 14 -59 7 -55 -9 1 -6 -4 -12 -12 -12 -8 0 -13 9 -12 24
1 21 5 24 29 19 16 -3 27 -1 27 6 0 12 -52 16 -63 4 -4 -3 -39 -5 -79 -4 -96
2 -125 -15 -41 -24 59 -7 93 -19 83 -29 -3 -2 -30 -7 -60 -10 -40 -4 -48 -3
-30 4 18 6 5 8 -48 5 -40 -2 -70 0 -67 5 3 5 -5 11 -17 13 -20 4 -19 4 5 6 15
0 27 -3 27 -7 0 -5 14 -6 31 -4 l31 5 -31 15 c-25 11 -42 13 -81 5 -40 -8 -54
-7 -68 4 -15 13 -14 14 15 9 18 -3 35 -1 38 5 4 5 3 9 -2 8 -4 -1 -21 0 -38 1
-35 2 123 29 178 30 20 0 37 -4 37 -10 0 -14 27 -13 36 2 5 8 2 9 -11 4 -13
-5 -11 2 10 31 16 20 23 33 15 28 -10 -6 -12 -4 -7 8 4 11 0 15 -11 15 -9 0
-25 3 -34 7 -11 4 -18 3 -18 -4 0 -6 -4 -11 -10 -11 -5 0 -10 9 -10 20 0 14 5
18 18 14 15 -5 15 -4 2 6 -11 9 -12 13 -2 17 14 6 16 33 2 33 -5 0 -10 -4 -10
-10 0 -5 -9 -10 -20 -10 -11 0 -35 -6 -53 -13 -40 -16 -83 -7 -79 16 3 20 -1
21 -58 3 -36 -12 -40 -15 -18 -15 21 -1 26 -5 22 -18 -3 -10 2 -7 10 7 12 20
15 22 16 7 0 -10 4 -16 8 -13 4 2 14 1 22 -5 12 -7 11 -9 -5 -10 -11 -1 -23
-1 -27 0 -5 0 -8 -5 -8 -12 0 -14 -101 -16 -189 -2 -32 5 -52 4 -48 -1 3 -5
-27 -9 -66 -9 -40 0 -78 -4 -84 -9 -7 -4 -24 -5 -39 -2 -14 4 -23 3 -20 -2 3
-5 0 -9 -7 -10 -7 0 -43 -3 -82 -7 -76 -7 -88 0 -15 9 63 7 94 17 103 33 4 7
18 13 30 13 18 0 19 2 7 10 -10 7 -2 8 29 4 29 -5 42 -4 38 3 -4 6 4 13 18 15
13 3 22 1 19 -3 -3 -5 -1 -9 5 -9 5 0 12 6 14 13 4 9 8 9 15 -2 6 -8 17 -11
32 -6 15 5 20 4 16 -4 -5 -7 5 -11 31 -10 28 1 31 3 13 6 -14 3 -30 9 -36 14
-6 5 -20 6 -29 2 -13 -4 -16 -3 -10 6 4 7 18 11 31 8 13 -2 24 0 24 5 0 5 5 6
10 3 6 -3 10 -1 10 4 0 6 5 11 11 11 5 0 7 -5 3 -11 -5 -8 -1 -8 14 0 11 6 39
11 61 11 38 0 47 7 42 34 -1 5 5 6 14 3 8 -4 15 -1 15 6 0 7 -11 12 -24 12
-13 0 -22 -3 -19 -7 2 -5 -1 -8 -6 -8 -6 0 -11 4 -11 9 0 5 -41 9 -90 9 -65 0
-88 -3 -84 -11 5 -8 2 -7 -7 1 -15 14 -33 16 -25 3 4 -5 -4 -7 -16 -3 -14 3
-19 1 -14 -6 4 -7 -4 -9 -28 -5 -19 3 -36 1 -40 -6 -4 -6 -12 -11 -17 -11 -6
0 -8 4 -5 9 18 28 -32 31 -540 30 -285 0 -525 -4 -534 -9 -21 -11 -219 -20
-225 -10 -3 5 1 11 7 13 7 3 -125 6 -294 6 l-308 1 0 -1089z m1220 952 c0 -14
2 -15 9 -4 7 10 13 11 27 2 11 -6 16 -11 12 -11 -3 0 -60 -9 -126 -20 -95 -16
-130 -18 -172 -10 -72 14 -86 11 -25 -6 l50 -14 -42 5 c-24 3 -62 7 -85 10
-30 3 -36 2 -18 -3 l25 -8 -25 -6 c-54 -14 -157 -18 -185 -9 -25 9 -20 10 30
6 37 -3 49 -1 30 3 -24 6 -4 11 90 25 66 10 136 15 155 13 26 -4 28 -4 10 2
-34 11 125 35 177 27 28 -4 33 -3 18 4 -17 8 -16 10 13 10 24 1 32 -3 32 -16z
m45 -63 c-3 -5 -13 -10 -21 -10 -8 0 -14 -6 -15 -12 0 -10 -2 -10 -6 0 -2 6
-11 12 -19 12 -9 0 -12 -5 -8 -12 4 -7 3 -8 -4 -4 -7 4 -12 5 -12 2 0 -2 15
-12 32 -21 24 -12 46 -14 85 -9 36 4 53 3 53 -5 0 -6 -17 -12 -37 -13 -21 -1
-49 -2 -63 -3 -14 -1 -28 3 -31 8 -4 6 -41 4 -95 -4 -49 -8 -77 -15 -61 -17
15 -2 27 -8 27 -13 0 -5 -10 -8 -22 -5 -13 2 -75 -5 -138 -16 -63 -10 -128
-20 -145 -22 -16 -2 -81 -11 -143 -21 -62 -9 -118 -15 -125 -12 -6 2 49 12
123 22 98 14 128 21 110 26 -16 5 -9 6 20 3 25 -2 81 2 125 10 67 13 70 14 23
10 -47 -4 -57 -3 -52 9 3 9 -6 17 -28 24 -27 9 -29 11 -10 12 31 1 64 -17 56
-31 -4 -7 1 -8 17 -2 13 4 38 9 54 11 17 2 41 6 55 8 14 2 32 4 40 4 19 1 2
17 -29 26 -15 4 -21 3 -17 -3 10 -16 -24 -23 -45 -9 -16 12 -10 15 59 25 99
16 112 15 112 -3 0 -8 9 -15 20 -15 25 0 26 15 3 26 -13 5 -1 11 42 20 79 16
77 16 70 4z m1349 -164 c-5 -20 -1 -24 25 -28 17 -3 31 -1 31 3 0 4 -12 9 -27
11 -16 2 15 8 67 13 52 6 97 7 100 4 8 -9 70 -17 70 -8 0 4 -6 10 -12 12 -7 3
7 5 32 5 25 0 39 -2 33 -5 -7 -2 -13 -11 -13 -18 0 -7 6 -15 13 -18 6 -2 -10
-3 -38 -1 -46 3 -47 2 -15 -6 33 -8 32 -8 -16 -7 -44 2 -50 0 -46 -15 2 -10 9
-18 14 -18 5 0 7 4 3 9 -3 6 21 9 60 8 37 -1 63 -6 62 -12 -2 -5 -20 -8 -40
-7 -28 3 -36 0 -32 -10 4 -9 19 -13 48 -11 l42 3 -40 -16 c-22 -8 -48 -20 -57
-25 -10 -5 -26 -10 -35 -10 -10 -1 0 -5 22 -9 l40 -8 -45 2 c-37 1 -45 4 -44
19 2 14 -1 15 -12 6 -7 -6 -19 -7 -25 -3 -7 4 -9 3 -5 -4 10 -17 -75 -19 -109
-2 l-30 14 25 6 c37 10 -69 24 -112 15 -25 -4 -29 -3 -17 4 9 6 41 14 70 17
77 9 109 26 39 20 -30 -2 -49 -2 -42 1 6 2 10 8 8 11 -2 4 20 5 50 4 30 -2 52
-8 49 -12 -3 -5 7 -7 22 -6 16 2 42 5 58 6 17 1 -17 9 -75 16 -58 7 -117 15
-132 17 -16 2 -37 4 -49 5 -12 1 -17 6 -13 13 3 6 18 9 33 6 15 -3 33 -2 41 4
8 5 11 9 5 9 -5 0 -3 5 5 10 21 13 21 13 14 -14z m334 -311 c-4 -5 -49 -9
-138 -14 -17 -1 -21 -4 -12 -9 12 -8 126 -6 151 3 7 3 20 0 28 -7 8 -7 29 -11
46 -10 39 3 30 -8 -12 -14 -18 -3 -31 -1 -31 5 0 15 -20 14 -54 -4 -19 -10
-33 -12 -40 -6 -8 7 -37 6 -81 0 -125 -19 -415 -42 -423 -34 -3 3 10 5 29 5
19 0 40 5 45 10 6 6 42 12 80 14 38 3 82 8 96 11 15 4 44 8 65 9 21 2 48 3 61
4 13 1 20 6 17 12 -4 6 -25 9 -48 6 -125 -15 -142 -16 -126 -7 8 6 58 13 110
17 52 3 96 8 98 10 7 6 145 5 139 -1z m-1123 -1165 c7 -12 -30 -27 -87 -36
-30 -5 -39 -4 -34 4 4 7 17 13 29 13 12 1 15 3 7 5 -8 2 -40 -3 -70 -11 -36
-9 -42 -13 -17 -9 21 3 37 1 37 -5 0 -14 -40 -18 -77 -7 -36 10 -57 1 -33 -14
13 -8 12 -10 -2 -10 -9 0 -20 5 -23 10 -3 6 -14 10 -23 10 -14 0 -13 -2 3 -13
16 -12 4 -16 -101 -36 -102 -18 -124 -20 -154 -9 -34 12 -26 15 213 62 180 36
253 47 265 40 10 -6 28 -7 42 -4 25 7 25 7 -5 12 -29 5 -29 5 -3 7 15 0 30 -4
33 -9z"/>
</g>
</svg>
